<?xml version="1.0" ?><!DOCTYPE svg  PUBLIC '-//W3C//DTD SVG 1.1//EN'  'http://www.w3.org/Graphics/SVG/1.1/DTD/svg11.dtd'><svg enable-background="new 0 0 512 512" height="512px" id="Tooth" version="1.1" viewBox="0 0 512 512" width="512px" xml:space="preserve" xmlns="http://www.w3.org/2000/svg" xmlns:xlink="http://www.w3.org/1999/xlink"><defs><style>.cls-1{fill:#f1f6fb;}</style></defs><g><path class="cls-1" d="M409.249,57.508c-18.778-17.695-42.872-23.277-67.845-15.713c-0.001,0-0.002,0-0.002,0l-40.477,12.269   c-29.811,9.045-60.041,9.043-89.853,0l-40.477-12.268c-24.974-7.564-49.068-1.982-67.845,15.713   c-28.322,26.69-39.242,74.798-27.82,122.563l62.209,260.126c2.233,9.337,7.392,17.427,14.261,23.298H20c-2.761,0-5,2.239-5,5   c0,2.762,2.239,5,5,5h412c2.762,0,5-2.238,5-5c0-2.761-2.238-5-5-5h-71.401c6.869-5.871,12.028-13.961,14.261-23.298   l62.209-260.126C448.491,132.306,437.571,84.198,409.249,57.508z M195.179,463.494c1.573-2.643,2.582-5.667,2.83-8.908   c2.721-35.514,10.914-77.236,21.383-108.887c11.483-34.715,25.168-55.44,36.608-55.44c11.439,0,25.125,20.725,36.607,55.438   c10.469,31.648,18.662,73.371,21.383,108.885c0.249,3.242,1.258,6.27,2.832,8.912H195.179z M427.344,177.744l-62.21,260.126   c-3.494,14.608-16.779,25.624-30.903,25.624h-0.133c-5.27-0.025-9.723-4.276-10.137-9.676   c-2.777-36.266-11.154-78.898-21.859-111.262c-13.674-41.338-29.184-62.298-46.102-62.298c-16.917,0-32.429,20.961-46.103,62.3   c-10.705,32.365-19.081,74.999-21.859,111.264c-0.414,5.396-4.864,9.645-10.15,9.672h-0.118c-14.124,0-27.409-11.016-30.903-25.624   L84.657,177.744c-5.32-22.247-5.561-44.891-0.696-65.482c4.634-19.615,13.503-36.032,25.648-47.477   c11.362-10.707,30.663-21.728,58.087-13.421l40.474,12.268c31.737,9.628,63.921,9.628,95.657,0l40.475-12.268l0,0   c27.425-8.306,46.727,2.713,58.088,13.421c12.145,11.445,21.014,27.862,25.648,47.477   C432.904,132.854,432.664,155.497,427.344,177.744z"/><path d="M402.355,103.278c-2.608,0.908-3.986,3.758-3.079,6.366c6.337,18.206,6.975,40.16,1.795,61.818l-8.527,35.658   c-0.643,2.686,1.015,5.384,3.7,6.026c0.391,0.094,0.781,0.138,1.166,0.138c2.262,0,4.311-1.543,4.859-3.838l8.527-35.658   c5.619-23.495,4.881-47.442-2.076-67.431C407.813,103.75,404.965,102.371,402.355,103.278z"/><path d="M393.786,80.289c-8.224-9.127-17.831-14.077-28.555-14.711c-2.776-0.163-5.124,1.939-5.286,4.696   c-0.164,2.757,1.938,5.124,4.695,5.287c8.008,0.474,15.314,4.317,21.716,11.422c0.987,1.096,2.349,1.653,3.716,1.653   c1.193,0,2.391-0.424,3.346-1.285C395.47,85.502,395.635,82.34,393.786,80.289z"/><path d="M492,463.494h-30c-2.762,0-5,2.239-5,5c0,2.762,2.238,5,5,5h30c2.762,0,5-2.238,5-5   C497,465.733,494.762,463.494,492,463.494z"/></g></svg>