<?xml version="1.0" encoding="UTF-8"?>
<!DOCTYPE svg PUBLIC "-//W3C//DTD SVG 1.1//EN" "http://www.w3.org/Graphics/SVG/1.1/DTD/svg11.dtd">
<!-- Creator: CorelDRAW 2019 (64-Bit) -->
<svg xmlns="http://www.w3.org/2000/svg" xml:space="preserve" width="4.62165in" height="4.62182in" version="1.1" style="shape-rendering:geometricPrecision; text-rendering:geometricPrecision; image-rendering:optimizeQuality; fill-rule:evenodd; clip-rule:evenodd"
viewBox="0 0 4339.5 4339.66"
 xmlns:xlink="http://www.w3.org/1999/xlink"
 xmlns:xodm="http://www.corel.com/coreldraw/odm/2003"
 enable-background="new 0 0 512 512">
 <defs>
  <style type="text/css">
   <![CDATA[
    .fil0 {fill:#F1F6FB;fill-rule:nonzero}
   ]]>
  </style>
 </defs>
 <g id="Layer_x0020_1">
  <metadata id="CorelCorpID_0Corel-Layer"/>
  <g id="_2311993438704">
   <g>
    <path class="fil0" d="M1848.03 942.68l0 0 -119.25 36.14c-81.23,24.65 -163.59,24.65 -244.85,0l-119.24 -36.14c-85.79,-25.98 -168.59,-6.76 -233.2,54.12 -92.18,86.86 -128.19,241.47 -91.75,393.87l183.25 766.26c17.23,72.01 81.54,124.29 153.64,124.29 48.4,-0.23 89.24,-38.55 92.97,-87.26 7.4,-96.63 29.42,-211.78 57.44,-300.5 35.69,-112.98 69.02,-147.57 79.3,-151.76 10.29,4.18 43.61,38.76 79.3,151.74 28.02,88.73 50.04,203.89 57.44,300.52 3.74,48.7 44.59,87.03 93.7,87.26 71.38,0 135.69,-52.29 152.92,-124.29l183.25 -766.26c36.44,-152.4 0.43,-307.01 -91.75,-393.87 -64.57,-60.86 -147.42,-80.1 -233.18,-54.11zm229.82 425.23l-183.25 766.26c-6.28,26.27 -29.56,47.12 -54.22,49.09 -8.63,-108.69 -33.74,-235.82 -65.77,-332.63 -46.06,-139.26 -101.09,-206.96 -168.25,-206.96 -67.16,0 -122.19,67.7 -168.25,206.96 -32.02,96.83 -57.15,223.98 -65.77,332.65 -24.53,-1.87 -47.92,-22.77 -54.22,-49.11l-183.25 -766.26c-28,-117.11 -2.41,-237.64 63.7,-299.94 20.28,-19.1 51.26,-38.62 93.19,-38.62 13.69,0 28.54,2.07 44.57,6.93l119.22 36.13c100.08,30.36 201.56,30.36 301.61,0l119.23 -36.13c65.14,-19.73 110.87,6.35 137.76,31.68 66.11,62.3 91.71,182.84 63.7,299.94z"/>
    <path class="fil0" d="M2559.1 653.61c-525.33,-525.35 -1380.15,-525.35 -1905.48,0 -525.35,525.33 -525.35,1380.13 0,1905.48 262.66,262.68 607.71,394.02 952.74,394.02 345.03,0 690.08,-131.33 952.74,-394.02 525.34,-525.35 525.34,-1380.14 -0,-1905.48zm-1836.33 1836.34c-487.21,-487.23 -487.21,-1279.99 0,-1767.19 235.63,-235.62 549.42,-365.38 883.59,-365.38 334.17,0 647.96,129.77 883.59,365.38 487.21,487.21 487.21,1279.96 0,1767.19 -487.23,487.19 -1279.97,487.17 -1767.18,0z"/>
    <path class="fil0" d="M2643.45 1419.98c-37.54,-212.25 -138.45,-405.52 -291.82,-558.9 -19.1,-19.1 -50.08,-19.1 -69.16,0 -19.1,19.08 -19.1,50.05 -0.01,69.15 139.13,139.13 230.65,314.38 264.68,506.78 4.2,23.71 24.82,40.39 48.1,40.39 2.83,0 5.69,-0.24 8.58,-0.74 26.59,-4.7 44.33,-30.08 39.64,-56.67z"/>
    <path class="fil0" d="M2236.83 761.58c-55.19,-41.3 -114.61,-77.23 -176.62,-106.77 -24.4,-11.63 -53.58,-1.26 -65.18,23.11 -11.62,24.37 -1.27,53.57 23.11,65.18 56.19,26.76 110.05,59.33 160.07,96.78 8.78,6.57 19.07,9.74 29.26,9.74 14.87,0 29.58,-6.76 39.19,-19.6 16.19,-21.63 11.78,-52.27 -9.84,-68.45z"/>
    <path class="fil0" d="M4226.44 3679.76l-119.26 -119.24 -1124.41 -1124.42c372.32,-617.7 292.39,-1433.74 -240.02,-1966.15 -626.61,-626.61 -1646.18,-626.61 -2272.8,0 -626.61,626.61 -626.61,1646.19 0,2272.8 313.31,313.31 724.85,469.96 1136.4,469.96 287.8,0 575.55,-76.72 829.74,-229.92l1112.19 1112.18 -0.01 -0 131.49 131.5c4.69,4.68 9.5,9.22 14.39,13.66 0.13,0.12 0.24,0.21 0.37,0.32 71.1,64.13 162.12,99.23 258.58,99.23 89.85,0 175,-30.47 243.7,-86.48 0.12,-0.1 0.23,-0.18 0.35,-0.26 4.39,-3.59 8.69,-7.32 12.94,-11.12 0.68,-0.6 1.39,-1.16 2.06,-1.78 4.86,-4.39 9.63,-8.9 14.29,-13.57 37.68,-37.69 65.94,-81.29 84.78,-127.82 7.07,-17.44 12.81,-35.32 17.22,-53.45 1.48,-6.03 2.8,-12.11 3.97,-18.2 4.71,-24.37 7.07,-49.11 7.07,-73.87 -0.01,-98.99 -37.7,-197.99 -113.06,-273.35zm-48.99 455.13c-0.15,0.18 -0.27,0.36 -0.41,0.54 -2.61,3.21 -5.33,6.32 -8.1,9.44 -0.52,0.58 -1,1.18 -1.52,1.76 -3.28,3.63 -6.65,7.18 -10.13,10.66 -3.48,3.49 -7.04,6.86 -10.66,10.14 -0.62,0.56 -1.26,1.06 -1.87,1.6 -3.06,2.73 -6.15,5.43 -9.31,8 -0.23,0.2 -0.47,0.36 -0.69,0.54 -105.48,85.49 -257.63,85.5 -363.15,0.1 -0.27,-0.23 -0.57,-0.42 -0.84,-0.65 -2.85,-2.33 -5.63,-4.77 -8.42,-7.22 -0.93,-0.82 -1.89,-1.6 -2.81,-2.43 -2.15,-1.95 -4.23,-3.99 -6.32,-6.01 -1.43,-1.36 -2.88,-2.67 -4.28,-4.07l-59.29 -59.28 -3.05 -3.06 408.35 -408.35 62.34 62.33c3.48,3.47 6.86,7.05 10.13,10.66 0.53,0.58 1.01,1.18 1.52,1.76 2.77,3.11 5.5,6.25 8.1,9.44 0.14,0.18 0.26,0.36 0.41,0.54 85.67,105.57 85.67,257.99 0.01,363.55zm-3638.34 -1461.3c-588.48,-588.47 -588.48,-1546 0,-2134.47 285.07,-285.08 664.09,-442.07 1067.24,-442.07 403.15,0 782.17,156.99 1067.24,442.07 567.2,567.2 587.62,1477.18 61.43,2069.16l-126.73 126.75c-284.92,253.25 -643.34,379.94 -1001.94,379.9 -386.44,-0.01 -773.03,-147.15 -1067.24,-441.33zm1997.55 271.4l138.81 -138.8c22.88,-20.4 45.35,-41.49 67.29,-63.44 21.95,-21.95 43.04,-44.42 63.44,-67.3l138.8 -138.8 1080.8 1080.79 -408.35 408.37 -1080.78 -1080.82z"/>
   </g>
  </g>
 </g>
</svg>
