<?xml version="1.0" ?><!DOCTYPE svg  PUBLIC '-//W3C//DTD SVG 1.1//EN'  'http://www.w3.org/Graphics/SVG/1.1/DTD/svg11.dtd'><svg enable-background="new 0 0 512 512" height="512px" id="Tooth_x5F_loose" version="1.1" viewBox="0 0 512 512" width="512px" xml:space="preserve" xmlns="http://www.w3.org/2000/svg" xmlns:xlink="http://www.w3.org/1999/xlink"><defs><style>.cls-1{fill:#f1f6fb;}</style></defs><g><path class="cls-1" d="M492,293.448h-81.01c-6.82,0-13.58,1.72-19.561,4.93l44.28-119.59c14.32-38.68,10.021-79.92-10.96-105.069   c-13.97-16.761-33.64-23.881-55.38-20.061l-34.73,6.12c-25.42,4.489-50.279,1.5-73.909-8.9L228.44,36.688   c-23.4-10.28-47.58-5.54-66.33,13.01c-1.97,1.94-1.98,5.11-0.04,7.069c1.939,1.961,5.109,1.98,7.07,0.041   c15.91-15.74,35.55-19.641,55.28-10.971l32.28,14.2c25.47,11.2,52.27,14.431,79.68,9.59l34.73-6.12   c23.14-4.069,37.77,6.79,45.97,16.62c8.8,10.561,14.45,24.88,16.31,41.42c1.96,17.41-0.479,36-7.06,53.761l-47.54,128.411   l-4.28,11.549l-0.01,0.041l-0.03,0.069c-0.21,0.39-0.42,0.78-0.609,1.181c-0.141,0.27-0.271,0.55-0.391,0.83   c-0.189,0.399-0.37,0.8-0.55,1.209c-0.13,0.301-0.26,0.61-0.37,0.92c-0.21,0.511-0.41,1.03-0.58,1.551   c-0.05,0.12-0.1,0.25-0.14,0.38c-0.11,0.33-0.22,0.67-0.32,1c-0.13,0.39-0.25,0.78-0.35,1.17c-0.16,0.53-0.29,1.06-0.42,1.59   l-0.16,0.67l-21.69,58.58c-4.22,11.4-15.939,18.96-27.26,17.601l-0.6,4.959l0.489-4.97c-3.93-0.5-6.869-4.079-6.699-8.17   c0.91-21.04-0.101-44.89-2.69-66.85c-0.39-3.38-0.83-6.71-1.3-9.98c-0.891-6.14-1.9-12.069-3.03-17.659   c-7.27-35.971-18.26-55.091-32.67-56.831c-14.38-1.73-29.61,14.23-45.23,47.45c-4.04,8.59-7.97,18.15-11.63,28.181   c-1.19,3.229-2.35,6.52-3.47,9.829c-5.86,17.28-10.83,35.44-14.15,52.121c-0.8,4-4.51,6.779-8.44,6.33l-0.57,4.97l0.46-4.98   c-11.32-1.37-20.91-11.5-22.3-23.569l-4.83-41.881l-1.21-10.479l-19.53-169.191c-2.15-18.66-0.16-37.149,5.76-53.49   c0.939-2.6-0.4-5.47-3-6.409c-2.6-0.94-5.46,0.399-6.4,3c-6.45,17.79-8.62,37.859-6.29,58.04l19.14,165.9   c-11.38-2.5-20.96-5.05-28.41-7.229c-7.03-5.04-15.311-7.7-24.021-7.7H20c-2.76,0-5,2.24-5,5v177.19c0,2.76,2.24,5,5,5h472   c2.76,0,5-2.24,5-5v-177.19C497,295.688,494.76,293.448,492,293.448z M320.28,411.969c0.01,0,0.14,0.01,0.149,0.02   c1.32,0.15,2.631,0.23,3.94,0.23c11.479,0,22.47-5.971,29.28-15.561l-7.45,31.16c-2.83,11.82-13.561,20.729-24.97,20.729h-0.11   c-3.96-0.02-7.31-3.229-7.62-7.3c-1.08-14.029-3.25-26.91-6.41-38.3C309.76,407.748,314.57,411.248,320.28,411.969z    M238.95,294.258c12.81-27.25,25.88-42.86,34.989-41.77c9.101,1.09,18.091,19.371,24.061,48.88c1.07,5.29,2.03,10.89,2.88,16.69   c-25.69,2.33-50.03,2.3-72.24,0.89C231.92,310.178,235.4,301.838,238.95,294.258z M154.65,318.908l5.21,45.13   c1.94,16.81,15,30.41,31.09,32.351l0.11,0.01c9.08,1.05,17.59-5.24,19.4-14.311c3.39-17.06,8.55-35.689,14.62-53.25   c1.22,0.08,2.45,0.16,3.68,0.24c24.91,1.55,49.43,1.2,73.43-1.02c2.541,21.449,3.541,44.789,2.641,65.39   c-0.03,0.78-0.02,1.55,0.05,2.31c-2.8-8.359-6.2-15.779-10.16-22.119c-10.21-16.36-23.6-25-38.72-25s-28.51,8.64-38.72,25   c-10.14,16.229-16.63,39.609-18.78,67.619c-0.31,4.07-3.66,7.271-7.6,7.29h-0.13c-11.41,0-22.14-8.909-24.97-20.729l-24.54-102.61   c-0.12-0.5-0.25-0.989-0.39-1.479c-0.05-0.221-0.12-0.44-0.19-0.66c-0.09-0.34-0.2-0.68-0.31-1.01c-0.06-0.19-0.12-0.381-0.19-0.57   c-0.12-0.36-0.24-0.71-0.38-1.07c-0.26-0.699-0.54-1.39-0.84-2.08c-0.21-0.5-0.44-0.99-0.68-1.479   c-0.01-0.03-0.021-0.061-0.05-0.101c-0.17-0.369-0.36-0.75-0.56-1.119c-0.11-0.211-0.22-0.42-0.33-0.631   c-0.03-0.05-0.06-0.109-0.09-0.16C142.61,316.208,148.42,317.578,154.65,318.908z M487,470.639H25v-167.19h76.01   c6.85,0,13.35,2.17,18.811,6.271c0.03,0.02,0.05,0.039,0.08,0.06c0.13,0.09,0.26,0.19,0.39,0.3c0.14,0.09,0.27,0.2,0.4,0.311   c0.51,0.399,1,0.83,1.48,1.27c0.3,0.27,0.6,0.561,0.89,0.85c0.36,0.34,0.7,0.7,1.02,1.061c0.29,0.3,0.56,0.6,0.81,0.91   c0.3,0.34,0.58,0.68,0.85,1.039c0.29,0.371,0.58,0.75,0.85,1.141c0.25,0.34,0.49,0.689,0.71,1.04c0.97,1.479,1.81,3.04,2.51,4.67   c0.18,0.39,0.34,0.79,0.5,1.2c0.17,0.439,0.33,0.9,0.49,1.359c0.28,0.86,0.53,1.721,0.74,2.601l24.54,102.61   c3.94,16.459,18.53,28.409,34.69,28.409h0.15c9.13-0.04,16.84-7.3,17.56-16.53c3.87-50.649,22.53-83.379,47.52-83.379   s43.65,32.729,47.52,83.369c0.721,9.24,8.431,16.5,17.58,16.54h0.131c16.159,0,30.75-11.95,34.689-28.409l24.22-101.28l3.44-9.29   c1.43-2.57,3.22-4.94,5.31-7.021c0.63-0.62,1.29-1.22,1.98-1.79c0.34-0.289,0.7-0.569,1.06-0.85l0.01-0.01   c5.511-4.221,12.091-6.45,19.051-6.45H487V470.639z"/><path d="M385.504,199.169c-0.959,2.59,0.362,5.467,2.952,6.426c0.572,0.211,1.159,0.313,1.735,0.313   c2.032,0,3.943-1.248,4.689-3.266l12.691-34.275c5.152-13.912,7.291-28.445,6.187-42.025c-0.224-2.752-2.638-4.813-5.389-4.578   c-2.753,0.225-4.802,2.637-4.578,5.389c0.987,12.137-0.948,25.188-5.597,37.742L385.504,199.169z"/><path d="M380.692,82.648c-2.762,0-5,2.238-5,5s2.238,5,5,5c2.411,0,8.815,0,14.897,8.736c0.972,1.396,2.526,2.145,4.108,2.145   c0.985,0,1.981-0.291,2.852-0.896c2.267-1.578,2.825-4.693,1.247-6.961C397.781,87.029,390.008,82.648,380.692,82.648z"/></g></svg>