<?xml version="1.0" ?><svg id="Dental_Scaling" viewBox="0 0 512 512" xmlns="http://www.w3.org/2000/svg"><defs><style>.cls-1{fill:#f1f6fb;}</style></defs><path class="cls-1" d="M408.2715,82.2025c-21.8887-14.6953-50.3408-15.9424-74.2588-3.2578a50.3888,50.3888,0,0,1-46.3232,0c-23.9151-12.6846-52.37-11.4355-74.2579,3.2568A105.7874,105.7874,0,0,0,168.41,190.4857l32.25,165.4815a38.7184,38.7184,0,0,0,75.0459,3.8623l19.8564-65.2715a15.9811,15.9811,0,0,1,30.5781,0L345.9971,359.83a38.7184,38.7184,0,0,0,75.0459-3.8623l32.249-165.48A105.7846,105.7846,0,0,0,408.2715,82.2025Zm-173.93,182.48a8,8,0,0,1-11.3135.0283l-13.23-13.1631a8,8,0,0,1,11.2852-11.3418l13.23,13.1631A8,8,0,0,1,234.3418,264.682ZM209.6689,200.09l13.1631-13.23a8,8,0,0,1,11.3418,11.2852l-13.1631,13.23A8,8,0,0,1,209.6689,200.09Zm34.8682,33.6406-18.6631.0469h-.02a8,8,0,0,1-.02-16l18.6631-.0469h.02a8,8,0,0,1,.02,16Zm106.0874,23.3113A10.235,10.235,0,1,1,360.86,246.8073,10.2349,10.2349,0,0,1,350.6245,257.0421Zm42.4634,40.94a10.235,10.235,0,1,1,10.2351-10.235A10.2349,10.2349,0,0,1,393.0879,297.9823ZM438.15,184.2255c-30.5261,9.0531-81.6777,16.9978-127.2988-10.27-46.0707-27.5363-97.7818-19.163-128.1958-10.0019A89.87,89.87,0,0,1,222.35,95.4857C239.332,84.0844,261.498,83.1625,280.1924,93.08a66.3849,66.3849,0,0,0,61.3183,0c18.6934-9.916,40.8594-8.9942,57.8428,2.4062v.001A89.8142,89.8142,0,0,1,438.15,184.2255Z"/><path d="M156.8936,221.3988l-56.919-.0166a2.2725,2.2725,0,0,0-.3135.0059,44.6861,44.6861,0,0,0,3.23,89.3134l5.9033.13.5289,31.3887L84.3213,357.6049a8,8,0,0,0-3.8076,6.8134v69.3184a8,8,0,0,0,8,8h57.0937a8,8,0,0,0,8-8V364.4183a8,8,0,0,0-3.8076-6.8134l-24.469-15.0572-.6687-39.68a8.0006,8.0006,0,0,0-7.8232-7.8633l-13.8291-.3037c-.16-.003-.3243-.003-.4873.0039a28.6861,28.6861,0,0,1-2.3858-57.3223l56.7529.0166h.002a8,8,0,0,0,.002-16ZM117.0605,356.2455l20.5469,12.6435v56.8477H96.5137V368.889Z"/></svg>